<svg xmlns="http://www.w3.org/2000/svg" xmlns:xlink="http://www.w3.org/1999/xlink" version="1.1" x="0px" y="0px" viewBox="0 0 100 125" enable-background="new 0 0 100 100" xml:space="preserve" fill="rgba(255, 255, 255, 0.3)"><path fill-rule="evenodd" clip-rule="evenodd" d="M34.457,44.069c5.786,5.797,14.198,7.239,21.08,4.343l1.617,1.095l3.041-0.42  l-2.824,3.725l3.477,3.483l6.436-0.438l-1.235,4.891l2.989,3.098l5.283-0.233l-0.977,4.083l3.79,3.8l4.119-1.755l2.211,1.771  l-1.079,2.443l0.259,0.188l12.912,0.767l0.985-4.671L65.053,38.241c2.978-6.876,1.515-14.655-4.268-20.447  c-7.512-7.524-19.499-7.716-26.754-0.472C26.735,24.603,26.948,36.549,34.457,44.069z M37.786,29.181  c-2.397-2.393-2.421-6.17-0.106-8.479c2.331-2.32,6.1-2.289,8.488,0.109c2.397,2.403,2.462,6.206,0.14,8.531  C43.99,31.656,40.173,31.588,37.786,29.181z"/><g><path d="M31.167,47.354c-4.492-4.494-7.021-10.416-7.123-16.669c-0.034-1.987,0.265-3.912,0.708-5.786   c-3.955,4.806-5.491,11.5-3.404,18.033c2.479,7.8,9.304,12.937,16.746,13.518l0.928,1.708l2.896,1.022l-4.209,2.024l1.489,4.681   l5.921,2.56l-3.336,3.786l1.24,4.116l4.8,2.215l-2.745,3.182l1.634,5.116l4.474,0.328l1.151,2.59l-2.081,1.67l0.14,0.28   l11.124,6.606l3.021-3.694L51.973,54.208c-1.208,0.193-2.432,0.303-3.678,0.303C41.857,54.511,35.772,51.967,31.167,47.354z"/></g><g><path d="M23.907,1.448c-11.235,0-20.374,9.139-20.374,20.374c0,8.718,5.574,16.015,13.29,18.906   c-0.081-0.634-0.165-1.262-0.223-1.92c-0.062-0.738-0.054-1.443-0.052-2.149c-5.504-2.724-9.346-8.292-9.346-14.836   c0-9.211,7.494-16.705,16.705-16.705c9.211,0,16.705,7.493,16.705,16.705c0,1.11-0.14,2.18-0.358,3.228   c0.141,0.716,0.566,1.422,1.697,1.64c1.022,0.197,1.609-0.395,1.951-1.069c0.239-1.23,0.379-2.497,0.379-3.799   C44.281,10.587,35.143,1.448,23.907,1.448z"/></g></svg>
