<?xml version="1.0" encoding="utf-8"?>
<!-- Generator: Adobe Illustrator 16.0.0, SVG Export Plug-In . SVG Version: 6.00 Build 0)  -->
<!DOCTYPE svg PUBLIC "-//W3C//DTD SVG 1.1//EN" "http://www.w3.org/Graphics/SVG/1.1/DTD/svg11.dtd">
<svg version="1.1" xmlns="http://www.w3.org/2000/svg" xmlns:xlink="http://www.w3.org/1999/xlink" x="0px" y="0px" width="1200px"
	 height="1200px" viewBox="0 0 1200 1200" enable-background="new 0 0 1200 1200" xml:space="preserve">
<g id="Photo" display="none">
	<path id="path_23_" display="inline" fill="#FBAC32" d="M578.786,352.512c8.133,8.133,15.198,16.929,21.214,26.206
		c6.016-9.277,13.08-18.073,21.213-26.206l120.209-120.209c5.393-5.392,11.08-10.308,17-14.77C747.498,139.807,680.739,80,600,80
		c-80.74,0-147.499,59.808-158.422,137.534c5.921,4.461,11.609,9.377,17.001,14.77L578.786,352.512z"/>
	<path id="path_22_" display="inline" fill="#74B1E0" d="M621.213,847.487c-8.133-8.133-15.197-16.928-21.213-26.205
		c-6.016,9.277-13.08,18.072-21.213,26.205L458.579,967.695c-5.393,5.393-11.08,10.309-17.001,14.77
		C452.501,1060.192,519.26,1120,600,1120s147.499-59.808,158.423-137.534c-5.922-4.462-11.609-9.378-17.002-14.771L621.213,847.487z
		"/>
	<path id="path_21_" display="inline" fill="#F26E65" d="M409.999,440c11.502,0,22.717,1.224,33.531,3.53
		C441.224,432.716,440,421.502,440,410V240c0-7.626,0.546-15.124,1.578-22.466c-62.686-47.237-152.182-42.322-209.274,14.77
		c-57.092,57.092-62.006,146.588-14.77,209.273C224.876,440.546,232.374,440,240,440H409.999z"/>
	<path id="path_20_" display="inline" fill="#F55502" d="M440,410c0,11.502,1.224,22.716,3.53,33.53
		c61.452,13.106,109.833,61.487,122.938,122.939c6.816,1.454,13.791,2.48,20.899,3.035c4.633-5.418,8.839-11.076,12.632-16.924
		c-34.187-52.721-34.186-121.143,0-173.863c-6.016-9.277-13.081-18.073-21.214-26.206L458.579,232.304
		c-5.393-5.393-11.081-10.309-17.001-14.77C440.546,224.876,440,232.374,440,240V410z"/>
	<path id="path_19_" display="inline" fill="#6CC0A3" d="M789.999,760c-11.502,0-22.716-1.224-33.529-3.53
		c2.307,10.814,3.53,22.028,3.53,33.53v170c0,7.626-0.546,15.124-1.577,22.466c62.686,47.237,152.18,42.321,209.272-14.771
		c57.092-57.092,62.007-146.589,14.771-209.273c-7.342,1.032-14.84,1.578-22.467,1.578H789.999z"/>
	<path id="path_18_" display="inline" fill="#3B75A2" d="M760,790c0-11.502-1.224-22.716-3.53-33.53
		c-61.452-13.105-109.835-61.486-122.94-122.939c-6.816-1.454-13.791-2.48-20.898-3.035c-4.634,5.418-8.84,11.075-12.631,16.924
		c34.187,52.721,34.188,121.143,0,173.863c6.016,9.277,13.08,18.072,21.213,26.205l120.208,120.208
		c5.393,5.393,11.08,10.309,17.002,14.771C759.454,975.124,760,967.626,760,960V790z"/>
	<path id="path_17_" display="inline" fill="#DA7FA0" d="M352.512,621.213c8.133-8.133,16.929-15.197,26.206-21.213
		c-9.277-6.016-18.073-13.081-26.206-21.213L232.304,458.579c-5.393-5.393-10.308-11.08-14.77-17.001
		C139.807,452.501,79.999,519.261,79.999,600c0,80.741,59.809,147.499,137.535,158.422c4.462-5.922,9.378-11.609,14.771-17.002
		L352.512,621.213z"/>
	<path id="path_16_" display="inline" fill="#D11C10" d="M352.513,578.787c8.133,8.133,16.928,15.197,26.206,21.213
		c52.72-34.186,121.142-34.186,173.862,0c5.848-3.792,11.505-7.998,16.924-12.631c-0.555-7.108-1.582-14.083-3.035-20.899
		c-61.452-13.106-109.833-61.488-122.938-122.939c-10.814-2.306-22.029-3.53-33.531-3.53H240c-7.626,0-15.124,0.546-22.466,1.578
		c4.461,5.921,9.377,11.608,14.77,17.001L352.513,578.787z"/>
	<path id="path_15_" display="inline" fill="#AA0200" d="M443.53,443.53c13.105,61.452,61.486,109.833,122.938,122.939
		C553.363,505.018,504.982,456.636,443.53,443.53z"/>
	<path id="path_14_" display="inline" fill="#B2D559" d="M1120,600c-0.001-80.74-59.809-147.499-137.534-158.422
		c-4.462,5.921-9.378,11.609-14.771,17.001L847.488,578.787c-8.133,8.133-16.929,15.197-26.206,21.213
		c9.277,6.016,18.072,13.08,26.205,21.213l120.209,120.209c5.393,5.393,10.308,11.08,14.77,17
		C1060.193,747.498,1119.999,680.74,1120,600z"/>
	<path id="path_13_" display="inline" fill="#41994B" d="M847.487,621.213c-8.133-8.133-16.928-15.197-26.205-21.213
		c-52.721,34.186-121.144,34.187-173.864,0c-5.848,3.792-11.505,7.998-16.924,12.632c0.555,7.107,1.581,14.082,3.035,20.898
		c61.453,13.105,109.835,61.487,122.94,122.939c10.813,2.307,22.027,3.53,33.529,3.53h170c7.627,0,15.125-0.546,22.467-1.578
		c-4.462-5.92-9.377-11.607-14.77-17L847.487,621.213z"/>
	<path id="path_12_" display="inline" fill="#0D4028" d="M756.47,756.47c-13.105-61.452-61.487-109.834-122.94-122.939
		C646.635,694.983,695.018,743.364,756.47,756.47z"/>
	<path id="path_11_" display="inline" fill="#A58EC2" d="M440,790c0-11.502,1.224-22.717,3.53-33.53
		C432.716,758.776,421.502,760,410,760H239.999c-7.626,0-15.124-0.546-22.465-1.577c-47.237,62.686-42.321,152.182,14.771,209.273
		s146.588,62.005,209.273,14.769C440.546,975.124,440,967.626,440,960V790z"/>
	<path id="path_10_" display="inline" fill="#63589D" d="M578.787,847.487c8.133-8.133,15.198-16.928,21.213-26.205
		c-34.187-52.721-34.188-121.143,0-173.863c-3.792-5.849-7.998-11.506-12.631-16.924c-7.108,0.556-14.083,1.582-20.899,3.035
		c-13.105,61.453-61.486,109.834-122.938,122.939C441.224,767.283,440,778.498,440,790v170c0,7.626,0.546,15.124,1.578,22.465
		c5.921-4.461,11.608-9.377,17.001-14.77L578.787,847.487z"/>
	<path id="path_9_" display="inline" fill="#232261" d="M600,821.282c34.188-52.721,34.187-121.143,0-173.863
		C565.813,700.14,565.813,768.562,600,821.282z"/>
	<path id="path_8_" display="inline" fill="#A63F66" d="M410,760c11.502,0,22.716-1.224,33.53-3.53
		c13.105-61.452,61.486-109.833,122.938-122.939c1.454-6.816,2.48-13.791,3.035-20.898c-5.418-4.634-11.076-8.84-16.924-12.632
		c-52.72,34.187-121.142,34.187-173.862,0c-9.277,6.016-18.073,13.08-26.206,21.213L232.304,741.421
		c-5.393,5.393-10.309,11.08-14.771,17.002c7.342,1.031,14.839,1.577,22.465,1.577H410z"/>
	<path id="path_7_" display="inline" fill="#4F1231" d="M443.53,756.47c61.452-13.105,109.833-61.486,122.938-122.939
		C505.017,646.637,456.636,695.018,443.53,756.47z"/>
	<path id="path_6_" display="inline" fill="#830906" d="M378.718,600c52.72,34.187,121.142,34.187,173.862,0
		C499.86,565.814,431.438,565.814,378.718,600z"/>
	<path id="path_5_" display="inline" fill="#F2E328" d="M760,410c0,11.502-1.224,22.716-3.53,33.53
		c10.813-2.306,22.027-3.53,33.529-3.53h170.002c7.626,0,15.123,0.546,22.465,1.578c47.237-62.686,42.321-152.181-14.771-209.273
		c-57.092-57.092-146.589-62.007-209.273-14.771C759.454,224.875,760,232.374,760,240V410z"/>
	<path id="path_4_" display="inline" fill="#DFAF09" d="M621.213,352.513c-8.133,8.133-15.197,16.928-21.213,26.206
		c34.186,52.72,34.186,121.142,0,173.863c3.792,5.848,7.998,11.505,12.631,16.924c7.107-0.555,14.082-1.581,20.898-3.035
		c13.105-61.453,61.488-109.834,122.94-122.939c2.307-10.814,3.53-22.028,3.53-33.53V240c0-7.626-0.546-15.125-1.578-22.466
		c-5.92,4.461-11.607,9.377-17,14.77L621.213,352.513z"/>
	<path id="path_3_" display="inline" fill="#A54F00" d="M600,378.718c-34.186,52.72-34.187,121.142,0,173.863
		C634.186,499.86,634.186,431.438,600,378.718z"/>
	<path id="path_2_" display="inline" fill="#84B416" d="M789.999,440c-11.502,0-22.716,1.224-33.529,3.53
		c-13.105,61.452-61.487,109.834-122.94,122.939c-1.454,6.816-2.48,13.791-3.035,20.898c5.419,4.634,11.076,8.84,16.924,12.632
		c52.721-34.187,121.144-34.187,173.864,0c9.277-6.016,18.073-13.08,26.206-21.213l120.207-120.208
		c5.393-5.393,10.309-11.081,14.771-17.001c-7.342-1.032-14.839-1.578-22.465-1.578H789.999z"/>
	<path id="path_1_" display="inline" fill="#598100" d="M756.47,443.53c-61.452,13.105-109.835,61.487-122.94,122.939
		C694.982,553.365,743.364,504.982,756.47,443.53z"/>
	<path id="path" display="inline" fill="#0B520B" d="M647.418,600c52.721,34.187,121.144,34.186,173.864,0
		C768.562,565.813,700.139,565.813,647.418,600z"/>
	<path id="path_31_" display="inline" fill="#FBAC32" d="M612.631,569.505c-4.633-5.418-8.839-11.076-12.631-16.924
		c-3.792,5.848-7.998,11.505-12.631,16.924c4.168,0.326,8.38,0.495,12.632,0.495C604.251,570,608.463,569.831,612.631,569.505z"/>
	<path id="path_29_" display="inline" fill="#74B1E0" d="M587.367,630.495c4.634,5.419,8.84,11.076,12.632,16.925
		c3.792-5.849,7.999-11.506,12.631-16.925C608.463,630.17,604.252,630,600,630S591.536,630.17,587.367,630.495z"/>
	<path id="path_30_" display="inline" fill="#F26E65" d="M587.368,569.505c-7.108-0.555-14.082-1.582-20.898-3.035
		c1.454,6.816,2.479,13.791,3.035,20.898c3.177-2.717,6.275-5.575,9.282-8.582S584.651,572.682,587.368,569.505z"/>
	<path id="path_28_" display="inline" fill="#6CC0A3" d="M612.631,630.495c7.108,0.555,14.083,1.581,20.899,3.035
		c-1.454-6.816-2.48-13.791-3.035-20.899c-3.178,2.717-6.275,5.575-9.282,8.582S615.348,627.317,612.631,630.495z"/>
	<path id="path_27_" display="inline" fill="#DA7FA0" d="M569.504,587.368c-5.418,4.634-11.076,8.84-16.924,12.632
		c5.848,3.792,11.506,7.998,16.924,12.632C569.83,608.464,570,604.252,570,600S569.83,591.536,569.504,587.368z"/>
	<path id="path_26_" display="inline" fill="#B2D559" d="M630,600c0,4.251,0.17,8.463,0.495,12.631
		c5.418-4.633,11.075-8.839,16.923-12.631c-5.848-3.792-11.505-7.998-16.923-12.631C630.17,591.537,630,595.749,630,600z"/>
	<path id="path_24_" display="inline" fill="#A58EC2" d="M569.504,612.632c-0.555,7.107-1.582,14.082-3.035,20.898
		c6.816-1.453,13.791-2.479,20.898-3.035c-2.717-3.177-5.575-6.275-8.581-9.281C575.78,618.207,572.682,615.349,569.504,612.632z"/>
	<path id="path_25_" display="inline" fill="#F2E328" d="M630.495,587.369c0.555-7.108,1.581-14.083,3.035-20.899
		c-6.816,1.454-13.791,2.48-20.899,3.035c2.717,3.178,5.575,6.276,8.582,9.282S627.317,584.652,630.495,587.369z"/>
</g>
<g id="Guides">
	<g id="box" display="none">
		<path display="inline" fill="#555555" d="M1199,1v1198H1V1H1199 M1200,0H0v1200h1200V0L1200,0z"/>
	</g>
	<line id="line_10_" fill="none" stroke="#888888" stroke-miterlimit="10" x1="80.5" y1="0" x2="80.5" y2="1200"/>
	<line id="line_11_" fill="none" stroke="#888888" stroke-miterlimit="10" x1="370.5" y1="0" x2="370.5" y2="1200"/>
	<line id="line_9_" fill="none" stroke="#888888" stroke-miterlimit="10" x1="1119.5" y1="0" x2="1119.5" y2="1200"/>
	<line id="line_8_" fill="none" stroke="#888888" stroke-miterlimit="10" x1="829.5" y1="0" x2="829.5" y2="1200"/>
	<line id="line_2_" fill="none" stroke="#888888" stroke-miterlimit="10" x1="0" y1="0" x2="1200" y2="1200"/>
	<line id="line_1_" fill="none" stroke="#888888" stroke-miterlimit="10" x1="1200" y1="0" x2="0" y2="1200"/>
	<line id="line" fill="none" stroke="#888888" stroke-miterlimit="10" x1="0" y1="600.5" x2="1200" y2="600.5"/>
	<line id="line_4_" fill="none" stroke="#888888" stroke-miterlimit="10" x1="0" y1="370.5" x2="1200" y2="370.5"/>
	<line id="line_3_" fill="none" stroke="#888888" stroke-miterlimit="10" x1="0" y1="80.5" x2="1200" y2="80.5"/>
	<line id="line_5_" fill="none" stroke="#888888" stroke-miterlimit="10" x1="0" y1="829.5" x2="1200" y2="829.5"/>
	<line id="line_7_" fill="none" stroke="#888888" stroke-miterlimit="10" x1="0" y1="1119.5" x2="1200" y2="1119.5"/>
	<line id="line_6_" fill="none" stroke="#888888" stroke-miterlimit="10" x1="599.5" y1="1" x2="599.5" y2="1201"/>
	<circle id="Circle1" fill="none" stroke="#888888" stroke-miterlimit="10" cx="600" cy="600" r="230"/>
	<ellipse id="Circle2" fill="none" stroke="#888888" stroke-miterlimit="10" cx="599.792" cy="600.25" rx="324.792" ry="324.75"/>
	<circle id="Circle3" fill="none" stroke="#888888" stroke-miterlimit="10" cx="600" cy="600" r="520"/>
	<path id="outline" fill="none" stroke="#888888" stroke-miterlimit="10" d="M1198,298.288c0,200.975,0,401.949,0,602.924
		c-0.331,3.452-0.656,6.904-0.995,10.356c-2.395,24.354-2.875,49.078-7.529,72.992c-17.636,90.623-69.218,154.637-154.405,190.706
		c-30.714,13.006-63.367,18.045-96.457,20.383c-12.378,0.874-24.769,1.573-37.153,2.351c-200.807,0-401.613,0-602.42,0
		c-5.4-0.389-10.793-0.923-16.201-1.143c-26.439-1.063-52.796-3.166-78.546-9.498c-85.728-21.087-145.993-72.221-179.689-154.074
		C12.118,1002.958,7.188,970.9,4.856,938.386c-0.917-12.771-1.579-25.562-2.356-38.341c0-200.197,0-400.393,0-600.588
		c0.327-3.651,0.628-7.307,0.984-10.956c2.394-24.547,2.857-49.471,7.546-73.572C28.664,124.311,80.252,60.3,165.437,24.235
		c30.716-13.004,63.365-18.042,96.453-20.38C274.267,2.98,286.656,2.28,299.04,1.5c200.807,0,401.613,0,602.42,0
		c5.206,0.386,10.404,0.93,15.617,1.132c26.637,1.036,53.192,3.131,79.132,9.512c85.726,21.089,146.004,72.213,179.69,154.081
		c12.482,30.331,17.407,62.389,19.748,94.903C1196.54,273.507,1197.223,285.9,1198,298.288z"/>
</g>
</svg>
