<?xml version="1.0" encoding="utf-8"?>
<!-- Generator: Adobe Illustrator 16.0.0, SVG Export Plug-In . SVG Version: 6.00 Build 0)  -->
<!DOCTYPE svg PUBLIC "-//W3C//DTD SVG 1.1//EN" "http://www.w3.org/Graphics/SVG/1.1/DTD/svg11.dtd">
<svg version="1.1" id="图层_1" xmlns="http://www.w3.org/2000/svg" xmlns:xlink="http://www.w3.org/1999/xlink" x="0px" y="0px"
	 width="880px" height="880px" viewBox="0 0 880 880" enable-background="new 0 0 880 880" xml:space="preserve">
<polyline fill="#434240" points="28.484,26.191 854.633,852.34 854.839,852.134 28.691,25.983 "/>
<polyline fill="#434240" points="854.632,25.983 28.484,852.131 28.691,852.34 854.839,26.191 "/>
<polyline fill="#434240" points="16.219,65.529 867.542,65.529 867.542,65.235 16.219,65.235 "/>
<polyline fill="#434240" points="16.467,439.31 866.867,439.31 866.867,439.014 16.467,439.014 "/>
<polyline fill="#434240" points="16.239,597.354 867.108,597.354 867.108,597.063 16.239,597.063 "/>
<polyline fill="#434240" points="16.261,281.261 867.108,281.261 867.108,280.969 16.261,280.969 "/>
<polyline fill="#434240" points="67.686,13.501 67.686,864.822 67.979,864.822 67.979,13.501 "/>
<polyline fill="#434240" points="283.472,13.945 283.465,864.791 283.758,864.791 283.765,13.945 "/>
<polyline fill="#434240" points="441.516,14.026 441.516,864.356 441.808,864.356 441.808,14.026 "/>
<polyline fill="#434240" points="815.391,13.628 815.391,864.951 815.687,864.951 815.687,13.628 "/>
<polyline fill="#434240" points="16.001,813.137 867.32,813.137 867.32,812.844 16.001,812.844 "/>
<polyline fill="#434240" points="599.502,13.779 599.502,864.638 599.795,864.638 599.795,13.779 "/>
<g>
	<path fill="#434240" d="M599.729,439.161h-0.15c0,43.608-17.675,83.087-46.253,111.665s-68.057,46.253-111.665,46.253
		s-83.087-17.675-111.665-46.253s-46.253-68.057-46.253-111.665s17.675-83.088,46.253-111.666
		c28.578-28.577,68.056-46.252,111.665-46.252c43.608,0,83.087,17.675,111.665,46.252c28.578,28.578,46.253,68.057,46.253,111.666
		H599.729h0.15c0-87.383-70.837-158.218-158.219-158.218s-158.218,70.835-158.218,158.218c0,87.384,70.836,158.219,158.218,158.219
		S599.88,526.545,599.88,439.161H599.729z"/>
</g>
<g>
	<path fill="#434240" d="M815.367,439.162h-0.148c0,103.154-41.811,196.542-109.412,264.144
		c-67.604,67.601-160.988,109.412-264.145,109.412c-103.156,0-196.547-41.812-264.148-109.412
		C109.915,635.704,68.101,542.316,68.101,439.162c0-103.156,41.813-196.547,109.412-264.146
		c67.602-67.601,160.989-109.412,264.148-109.412c103.157,0,196.542,41.812,264.145,109.412
		c67.602,67.599,109.412,160.989,109.412,264.146H815.367h0.146c0-206.473-167.379-373.852-373.852-373.852
		c-206.474,0-373.852,167.379-373.852,373.852c0,206.472,167.378,373.851,373.852,373.851
		c206.473,0,373.852-167.379,373.852-373.851H815.367z"/>
	<path fill="#434240" d="M665.119,439.162h-0.148c0,61.666-24.994,117.495-65.404,157.905
		c-40.414,40.41-96.24,65.404-157.905,65.404c-61.667,0-117.492-24.994-157.905-65.404c-40.409-40.41-65.405-96.239-65.405-157.905
		s24.996-117.491,65.405-157.904c40.413-40.411,96.238-65.405,157.905-65.405c61.665,0,117.491,24.994,157.905,65.405
		c40.41,40.413,65.404,96.238,65.404,157.904H665.119h0.145c0-123.49-100.109-223.604-223.602-223.604
		c-123.493,0-223.602,100.113-223.602,223.604c0,123.491,100.108,223.603,223.602,223.603
		c123.493,0,223.602-100.111,223.602-223.603H665.119z"/>
</g>
<g>
	<path fill="#434240" d="M866.858,689.461h-0.25c0,48.027-19.647,91.688-51.303,123.345
		c-31.656,31.655-75.317,51.303-123.345,51.303H191.362c-48.028,0-91.688-19.647-123.344-51.303
		c-31.656-31.656-51.303-75.317-51.303-123.345V188.862c0-48.028,19.647-91.688,51.303-123.344s75.316-51.303,123.344-51.303
		h500.599c48.027,0,91.688,19.647,123.345,51.303c31.655,31.656,51.303,75.316,51.303,123.344v500.599H866.858h0.25V188.862
		C867.107,92.53,788.293,13.716,691.961,13.715l0,0H191.362l0,0C95.03,13.716,16.216,92.53,16.215,188.862l0,0v500.599l0,0
		c0.001,96.332,78.815,175.146,175.147,175.147h500.599c96.332-0.001,175.146-78.815,175.147-175.147H866.858z"/>
</g>
</svg>
